# xmcd
#
# Track frame offsets:
#	150
#	18296
#	36129
#	54290
#	71877
#	82877
#	99121
#	111375
#	137934
#	158321
#
# Disc length: 2246 seconds
#
# Revision: 0
# Processed by: cddbd v1.5.1PL0 Copyright (c) Steve Scherf et al.
# Submitted via: audiograbber 1.82.02
#
DISCID=7308c40a
DTITLE=Andy Gorwell - Uprooted
DYEAR=2002
DGENRE=Blues
TTITLE0=Diesel
TTITLE1=Diamonds
TTITLE2=Old Trains
TTITLE3=Anticipating
TTITLE4=Old Friend The Blues
TTITLE5=Send Me In A Woman
TTITLE6=Take You Home Tonight
TTITLE7=Low Down Stinkin' Bars
TTITLE8=No Expectations
TTITLE9=Hit The Road
EXTD=
EXTT0=
EXTT1=
EXTT2=
EXTT3=
EXTT4=
EXTT5=
EXTT6=
EXTT7=
EXTT8=
EXTT9=
PLAYORDER=
